{
  "accessors": [
    {
      "bufferView": 0,
      "componentType": 5126,
      "count": 386,
      "type": "VEC3",
      "max": [
        15.252546310424805,
        137.59953308105469,
        18.109687805175781
      ],
      "min": [
        -15.252546310424805,
        0.36636176705360413,
        -18.109695434570313
      ]
    },
    {
      "bufferView": 1,
      "componentType": 5126,
      "count": 386,
      "type": "VEC3",
      "max": [
        1.0,
        1.0,
        1.0
      ],
      "min": [
        -1.0,
        -1.0,
        -1.0
      ]
    },
    {
      "bufferView": 2,
      "componentType": 5126,
      "count": 386,
      "type": "VEC4",
      "max": [
        1.0,
        1.0,
        1.0,
        1.0
      ],
      "min": [
        -1.0,
        -1.0,
        -1.0,
        1.0
      ]
    },
    {
      "bufferView": 3,
      "componentType": 5126,
      "count": 386,
      "type": "VEC2",
      "max": [
        0.99817031621932983,
        0.94306206703186035
      ],
      "min": [
        0.0064831972122192383,
        0.0059481263160705566
      ]
    },
    {
      "bufferView": 4,
      "componentType": 5126,
      "count": 386,
      "type": "VEC2",
      "max": [
        0.93653237819671631,
        0.99603176116943359
      ],
      "min": [
        0.0037311911582946777,
        0.0039681792259216309
      ]
    },
    {
      "bufferView": 5,
      "componentType": 5123,
      "count": 618,
      "type": "SCALAR",
      "max": [
        385.0
      ],
      "min": [
        0.0
      ]
    }
  ],
  "asset": {
    "version": "2.0"
  },
  "buffers": [
    {
      "uri": "Skyscraper_distance_1.bin",
      "byteLength": 22852
    }
  ],
  "bufferViews": [
    {
      "buffer": 0,
      "byteLength": 4632
    },
    {
      "buffer": 0,
      "byteOffset": 4632,
      "byteLength": 4632
    },
    {
      "buffer": 0,
      "byteOffset": 9264,
      "byteLength": 6176
    },
    {
      "buffer": 0,
      "byteOffset": 15440,
      "byteLength": 3088
    },
    {
      "buffer": 0,
      "byteOffset": 18528,
      "byteLength": 3088
    },
    {
      "buffer": 0,
      "byteOffset": 21616,
      "byteLength": 1236
    }
  ],
  "images": [
    {
      "uri": "../Textures/Skyscraper_01_e.png",
      "name": "Skyscraper_01_e"
    },
    {
      "uri": "../Textures/Skyscraper_01_n.png",
      "name": "Skyscraper_01_n"
    },
    {
      "uri": "../Textures/Skyscraper_01_ao.png",
      "name": "Skyscraper_01_ao"
    },
    {
      "uri": "../Textures/Skyscraper_01_a.png",
      "name": "Skyscraper_01_a"
    },
    {
      "uri": "../Textures/Skyscraper_01_m.png",
      "name": "Skyscraper_01_m"
    }
  ],
  "materials": [
    {
      "pbrMetallicRoughness": {
        "baseColorFactor": [
          0.7482759,
          0.7482759,
          0.7482759,
          1.0
        ],
        "baseColorTexture": {
          "index": 3
        },
        "metallicRoughnessTexture": {
          "index": 4
        }
      },
      "normalTexture": {
        "index": 1
      },
      "occlusionTexture": {
        "index": 2
      },
      "emissiveTexture": {
        "index": 0
      },
      "emissiveFactor": [
        1.0,
        1.0,
        1.0
      ],
      "name": "Skyscraper_01_a"
    }
  ],
  "meshes": [
    {
      "primitives": [
        {
          "attributes": {
            "POSITION": 0,
            "NORMAL": 1,
            "TANGENT": 2,
            "TEXCOORD_0": 3,
            "TEXCOORD_1": 4
          },
          "indices": 5,
          "material": 0
        }
      ],
      "name": "Skyscraper_distance_1"
    }
  ],
  "nodes": [
    {
      "mesh": 0,
      "name": "Skyscraper_distance_1"
    }
  ],
  "samplers": [
    {
      "minFilter": 9985
    },
    {
      "minFilter": 9985
    },
    {
      "minFilter": 9985
    },
    {
      "minFilter": 9985
    },
    {
      "minFilter": 9985
    }
  ],
  "scene": 0,
  "scenes": [
    {
      "nodes": [
        0
      ],
      "name": "Skyscraper_distance_1"
    }
  ],
  "textures": [
    {
      "sampler": 0,
      "source": 0,
      "name": "Skyscraper_01_e"
    },
    {
      "sampler": 1,
      "source": 1,
      "name": "Skyscraper_01_n"
    },
    {
      "sampler": 2,
      "source": 2,
      "name": "Skyscraper_01_ao"
    },
    {
      "sampler": 3,
      "source": 3,
      "name": "Skyscraper_01_a"
    },
    {
      "sampler": 4,
      "source": 4,
      "name": "Skyscraper_01_m"
    }
  ]
}