{
  "accessors": [
    {
      "bufferView": 0,
      "componentType": 5126,
      "count": 560,
      "type": "VEC3",
      "max": [
        6.8446807861328125,
        174.04750061035156,
        13.904913902282715
      ],
      "min": [
        -6.8446769714355469,
        -0.16282844543457031,
        -13.904922485351563
      ]
    },
    {
      "bufferView": 1,
      "componentType": 5126,
      "count": 560,
      "type": "VEC3",
      "max": [
        1.0,
        1.0,
        1.0
      ],
      "min": [
        -1.0,
        -1.0,
        -1.0
      ]
    },
    {
      "bufferView": 2,
      "componentType": 5126,
      "count": 560,
      "type": "VEC4",
      "max": [
        1.0,
        1.0,
        1.0,
        1.0
      ],
      "min": [
        -1.0,
        -1.0,
        -1.0,
        -1.0
      ]
    },
    {
      "bufferView": 3,
      "componentType": 5126,
      "count": 560,
      "type": "VEC2",
      "max": [
        0.97927242517471313,
        0.9074711799621582
      ],
      "min": [
        0.00082548381760716438,
        0.081552445888519287
      ]
    },
    {
      "bufferView": 4,
      "componentType": 5126,
      "count": 560,
      "type": "VEC2",
      "max": [
        0.99603188037872314,
        0.99610495567321777
      ],
      "min": [
        0.0039682388305664063,
        0.025640249252319336
      ]
    },
    {
      "bufferView": 5,
      "componentType": 5123,
      "count": 876,
      "type": "SCALAR",
      "max": [
        559.0
      ],
      "min": [
        0.0
      ]
    }
  ],
  "asset": {
    "version": "2.0"
  },
  "buffers": [
    {
      "uri": "Skyscraper_distance_8.bin",
      "byteLength": 33112
    }
  ],
  "bufferViews": [
    {
      "buffer": 0,
      "byteLength": 6720
    },
    {
      "buffer": 0,
      "byteOffset": 6720,
      "byteLength": 6720
    },
    {
      "buffer": 0,
      "byteOffset": 13440,
      "byteLength": 8960
    },
    {
      "buffer": 0,
      "byteOffset": 22400,
      "byteLength": 4480
    },
    {
      "buffer": 0,
      "byteOffset": 26880,
      "byteLength": 4480
    },
    {
      "buffer": 0,
      "byteOffset": 31360,
      "byteLength": 1752
    }
  ],
  "images": [
    {
      "uri": "Assets/Dark%20City%202/Assets/Source/Background/Textures/Skyscraper_01_e.png",
      "name": "Skyscraper_01_e"
    },
    {
      "uri": "Assets/Dark%20City%202/Assets/Source/Background/Textures/Skyscraper_01_n.png",
      "name": "Skyscraper_01_n"
    },
    {
      "uri": "Assets/Dark%20City%202/Assets/Source/Background/Textures/Skyscraper_01_ao.png",
      "name": "Skyscraper_01_ao"
    },
    {
      "uri": "Assets/Dark%20City%202/Assets/Source/Background/Textures/Skyscraper_01_a.png",
      "name": "Skyscraper_01_a"
    },
    {
      "uri": "Assets/Dark%20City%202/Assets/Source/Background/Textures/Skyscraper_01_m.png",
      "name": "Skyscraper_01_m"
    }
  ],
  "materials": [
    {
      "pbrMetallicRoughness": {
        "baseColorFactor": [
          0.7482759,
          0.7482759,
          0.7482759,
          1.0
        ],
        "baseColorTexture": {
          "index": 3
        },
        "metallicRoughnessTexture": {
          "index": 4
        }
      },
      "normalTexture": {
        "index": 1
      },
      "occlusionTexture": {
        "index": 2
      },
      "emissiveTexture": {
        "index": 0
      },
      "emissiveFactor": [
        1.0,
        1.0,
        1.0
      ],
      "name": "Skyscraper_01_a"
    }
  ],
  "meshes": [
    {
      "primitives": [
        {
          "attributes": {
            "POSITION": 0,
            "NORMAL": 1,
            "TANGENT": 2,
            "TEXCOORD_0": 3,
            "TEXCOORD_1": 4
          },
          "indices": 5,
          "material": 0
        }
      ],
      "name": "Skyscraper_distance_8"
    }
  ],
  "nodes": [
    {
      "mesh": 0,
      "name": "Skyscraper_distance_8"
    }
  ],
  "samplers": [
    {
      "minFilter": 9985
    },
    {
      "minFilter": 9985
    },
    {
      "minFilter": 9985
    },
    {
      "minFilter": 9985
    },
    {
      "minFilter": 9985
    }
  ],
  "scene": 0,
  "scenes": [
    {
      "nodes": [
        0
      ],
      "name": "Skyscraper_distance_8"
    }
  ],
  "textures": [
    {
      "sampler": 0,
      "source": 0,
      "name": "Skyscraper_01_e"
    },
    {
      "sampler": 1,
      "source": 1,
      "name": "Skyscraper_01_n"
    },
    {
      "sampler": 2,
      "source": 2,
      "name": "Skyscraper_01_ao"
    },
    {
      "sampler": 3,
      "source": 3,
      "name": "Skyscraper_01_a"
    },
    {
      "sampler": 4,
      "source": 4,
      "name": "Skyscraper_01_m"
    }
  ]
}