{
  "accessors": [
    {
      "bufferView": 0,
      "componentType": 5126,
      "count": 664,
      "type": "VEC3",
      "max": [
        12.74777889251709,
        149.29991149902344,
        12.74777889251709
      ],
      "min": [
        -16.787132263183594,
        -2.1457672119140625E-06,
        -12.747772216796875
      ]
    },
    {
      "bufferView": 1,
      "componentType": 5126,
      "count": 664,
      "type": "VEC3",
      "max": [
        1.0,
        1.0,
        1.0
      ],
      "min": [
        -1.0,
        -1.0,
        -1.0
      ]
    },
    {
      "bufferView": 2,
      "componentType": 5126,
      "count": 664,
      "type": "VEC4",
      "max": [
        1.0,
        0.73508226871490479,
        1.0,
        1.0
      ],
      "min": [
        -1.0,
        -1.0,
        -1.0,
        -1.0
      ]
    },
    {
      "bufferView": 3,
      "componentType": 5126,
      "count": 664,
      "type": "VEC2",
      "max": [
        0.963725209236145,
        0.87037372589111328
      ],
      "min": [
        0.00069388118572533131,
        0.0072339177131652832
      ]
    },
    {
      "bufferView": 4,
      "componentType": 5126,
      "count": 664,
      "type": "VEC2",
      "max": [
        0.96876436471939087,
        0.99603176116943359
      ],
      "min": [
        0.0038596317172050476,
        0.003964543342590332
      ]
    },
    {
      "bufferView": 5,
      "componentType": 5123,
      "count": 1104,
      "type": "SCALAR",
      "max": [
        663.0
      ],
      "min": [
        0.0
      ]
    }
  ],
  "asset": {
    "version": "2.0"
  },
  "buffers": [
    {
      "uri": "Skyscraper_distance_7.bin",
      "byteLength": 39392
    }
  ],
  "bufferViews": [
    {
      "buffer": 0,
      "byteLength": 7968
    },
    {
      "buffer": 0,
      "byteOffset": 7968,
      "byteLength": 7968
    },
    {
      "buffer": 0,
      "byteOffset": 15936,
      "byteLength": 10624
    },
    {
      "buffer": 0,
      "byteOffset": 26560,
      "byteLength": 5312
    },
    {
      "buffer": 0,
      "byteOffset": 31872,
      "byteLength": 5312
    },
    {
      "buffer": 0,
      "byteOffset": 37184,
      "byteLength": 2208
    }
  ],
  "images": [
    {
      "uri": "Assets/Dark%20City%202/Assets/Source/Background/Textures/Skyscraper_01_e.png",
      "name": "Skyscraper_01_e"
    },
    {
      "uri": "Assets/Dark%20City%202/Assets/Source/Background/Textures/Skyscraper_01_n.png",
      "name": "Skyscraper_01_n"
    },
    {
      "uri": "Assets/Dark%20City%202/Assets/Source/Background/Textures/Skyscraper_01_ao.png",
      "name": "Skyscraper_01_ao"
    },
    {
      "uri": "Assets/Dark%20City%202/Assets/Source/Background/Textures/Skyscraper_01_a.png",
      "name": "Skyscraper_01_a"
    },
    {
      "uri": "Assets/Dark%20City%202/Assets/Source/Background/Textures/Skyscraper_01_m.png",
      "name": "Skyscraper_01_m"
    }
  ],
  "materials": [
    {
      "pbrMetallicRoughness": {
        "baseColorFactor": [
          0.7482759,
          0.7482759,
          0.7482759,
          1.0
        ],
        "baseColorTexture": {
          "index": 3
        },
        "metallicRoughnessTexture": {
          "index": 4
        }
      },
      "normalTexture": {
        "index": 1
      },
      "occlusionTexture": {
        "index": 2
      },
      "emissiveTexture": {
        "index": 0
      },
      "emissiveFactor": [
        1.0,
        1.0,
        1.0
      ],
      "name": "Skyscraper_01_a"
    }
  ],
  "meshes": [
    {
      "primitives": [
        {
          "attributes": {
            "POSITION": 0,
            "NORMAL": 1,
            "TANGENT": 2,
            "TEXCOORD_0": 3,
            "TEXCOORD_1": 4
          },
          "indices": 5,
          "material": 0
        }
      ],
      "name": "Skyscraper_distance_7"
    }
  ],
  "nodes": [
    {
      "mesh": 0,
      "name": "Skyscraper_distance_7"
    }
  ],
  "samplers": [
    {
      "minFilter": 9985
    },
    {
      "minFilter": 9985
    },
    {
      "minFilter": 9985
    },
    {
      "minFilter": 9985
    },
    {
      "minFilter": 9985
    }
  ],
  "scene": 0,
  "scenes": [
    {
      "nodes": [
        0
      ],
      "name": "Skyscraper_distance_7"
    }
  ],
  "textures": [
    {
      "sampler": 0,
      "source": 0,
      "name": "Skyscraper_01_e"
    },
    {
      "sampler": 1,
      "source": 1,
      "name": "Skyscraper_01_n"
    },
    {
      "sampler": 2,
      "source": 2,
      "name": "Skyscraper_01_ao"
    },
    {
      "sampler": 3,
      "source": 3,
      "name": "Skyscraper_01_a"
    },
    {
      "sampler": 4,
      "source": 4,
      "name": "Skyscraper_01_m"
    }
  ]
}