{
  "accessors": [
    {
      "bufferView": 0,
      "componentType": 5126,
      "count": 3365,
      "type": "VEC3",
      "max": [
        13.605988502502441,
        238.37307739257813,
        11.768885612487793
      ],
      "min": [
        -11.278603553771973,
        -6.646392822265625,
        -9.3795967102050781
      ]
    },
    {
      "bufferView": 1,
      "componentType": 5126,
      "count": 3365,
      "type": "VEC3",
      "max": [
        1.0,
        1.0,
        1.0
      ],
      "min": [
        -1.0,
        -1.0,
        -1.0
      ]
    },
    {
      "bufferView": 2,
      "componentType": 5126,
      "count": 3365,
      "type": "VEC4",
      "max": [
        1.0,
        1.0,
        1.0,
        1.0
      ],
      "min": [
        -1.0,
        -1.0,
        -1.0,
        -1.0
      ]
    },
    {
      "bufferView": 3,
      "componentType": 5126,
      "count": 3365,
      "type": "VEC2",
      "max": [
        3.1263790130615234,
        1.0
      ],
      "min": [
        -1.8088767528533936,
        -0.058676481246948242
      ]
    },
    {
      "bufferView": 4,
      "componentType": 5126,
      "count": 3365,
      "type": "VEC2",
      "max": [
        0.945879340171814,
        0.99603176116943359
      ],
      "min": [
        0.0037684142589569092,
        0.0039680004119873047
      ]
    },
    {
      "bufferView": 5,
      "componentType": 5123,
      "count": 4842,
      "type": "SCALAR",
      "max": [
        3140.0
      ],
      "min": [
        0.0
      ]
    },
    {
      "bufferView": 6,
      "componentType": 5123,
      "count": 354,
      "type": "SCALAR",
      "max": [
        3364.0
      ],
      "min": [
        3141.0
      ]
    }
  ],
  "asset": {
    "version": "2.0"
  },
  "buffers": [
    {
      "uri": "Skyscraper_05.bin",
      "byteLength": 198832
    }
  ],
  "bufferViews": [
    {
      "buffer": 0,
      "byteLength": 40380
    },
    {
      "buffer": 0,
      "byteOffset": 40380,
      "byteLength": 40380
    },
    {
      "buffer": 0,
      "byteOffset": 80760,
      "byteLength": 53840
    },
    {
      "buffer": 0,
      "byteOffset": 134600,
      "byteLength": 26920
    },
    {
      "buffer": 0,
      "byteOffset": 161520,
      "byteLength": 26920
    },
    {
      "buffer": 0,
      "byteOffset": 188440,
      "byteLength": 9684
    },
    {
      "buffer": 0,
      "byteOffset": 198124,
      "byteLength": 708
    }
  ],
  "images": [
    {
      "uri": "Assets/Dark%20City%202/Assets/Source/Background/Textures/Skyscraper_01_e.png",
      "name": "Skyscraper_01_e"
    },
    {
      "uri": "Assets/Dark%20City%202/Assets/Source/Background/Textures/Skyscraper_01_n.png",
      "name": "Skyscraper_01_n"
    },
    {
      "uri": "Assets/Dark%20City%202/Assets/Source/Background/Textures/Skyscraper_01_ao.png",
      "name": "Skyscraper_01_ao"
    },
    {
      "uri": "Assets/Dark%20City%202/Assets/Source/Background/Textures/Skyscraper_01_a.png",
      "name": "Skyscraper_01_a"
    },
    {
      "uri": "Assets/Dark%20City%202/Assets/Source/Background/Textures/Skyscraper_01_m.png",
      "name": "Skyscraper_01_m"
    },
    {
      "uri": "Assets/Dark%20City%202/Assets/Source/Background/Textures/Grid3_n.png",
      "name": "Grid3_n"
    },
    {
      "uri": "Assets/Dark%20City%202/Assets/Source/Background/Textures/Grid3_ao.png",
      "name": "Grid3_ao"
    },
    {
      "uri": "Assets/Dark%20City%202/Assets/Source/Background/Textures/Grid3_a.png",
      "name": "Grid3_a"
    },
    {
      "uri": "Assets/Dark%20City%202/Assets/Source/Background/Textures/Grid3_m.png",
      "name": "Grid3_m"
    }
  ],
  "materials": [
    {
      "pbrMetallicRoughness": {
        "baseColorFactor": [
          0.7482759,
          0.7482759,
          0.7482759,
          1.0
        ],
        "baseColorTexture": {
          "index": 3
        },
        "metallicRoughnessTexture": {
          "index": 4
        }
      },
      "normalTexture": {
        "index": 1
      },
      "occlusionTexture": {
        "index": 2
      },
      "emissiveTexture": {
        "index": 0
      },
      "emissiveFactor": [
        1.0,
        1.0,
        1.0
      ],
      "name": "Skyscraper_01_a"
    },
    {
      "pbrMetallicRoughness": {
        "baseColorTexture": {
          "index": 7
        },
        "metallicRoughnessTexture": {
          "index": 8
        }
      },
      "normalTexture": {
        "index": 5
      },
      "occlusionTexture": {
        "strength": 0.19200000166893005,
        "index": 6
      },
      "alphaMode": "MASK",
      "alphaCutoff": 0.54500001668930054,
      "name": "Grid3_a"
    }
  ],
  "meshes": [
    {
      "primitives": [
        {
          "attributes": {
            "POSITION": 0,
            "NORMAL": 1,
            "TANGENT": 2,
            "TEXCOORD_0": 3,
            "TEXCOORD_1": 4
          },
          "indices": 5,
          "material": 0
        },
        {
          "attributes": {
            "POSITION": 0,
            "NORMAL": 1,
            "TANGENT": 2,
            "TEXCOORD_0": 3,
            "TEXCOORD_1": 4
          },
          "indices": 6,
          "material": 1
        }
      ],
      "name": "Skyscraper_05"
    }
  ],
  "nodes": [
    {
      "mesh": 0,
      "name": "Skyscraper_05"
    }
  ],
  "samplers": [
    {
      "minFilter": 9985
    },
    {
      "minFilter": 9985
    },
    {
      "minFilter": 9985
    },
    {
      "minFilter": 9985
    },
    {
      "minFilter": 9985
    },
    {
      "minFilter": 9985
    },
    {
      "minFilter": 9985
    },
    {
      "minFilter": 9985
    },
    {
      "minFilter": 9985
    }
  ],
  "scene": 0,
  "scenes": [
    {
      "nodes": [
        0
      ],
      "name": "Skyscraper_05"
    }
  ],
  "textures": [
    {
      "sampler": 0,
      "source": 0,
      "name": "Skyscraper_01_e"
    },
    {
      "sampler": 1,
      "source": 1,
      "name": "Skyscraper_01_n"
    },
    {
      "sampler": 2,
      "source": 2,
      "name": "Skyscraper_01_ao"
    },
    {
      "sampler": 3,
      "source": 3,
      "name": "Skyscraper_01_a"
    },
    {
      "sampler": 4,
      "source": 4,
      "name": "Skyscraper_01_m"
    },
    {
      "sampler": 5,
      "source": 5,
      "name": "Grid3_n"
    },
    {
      "sampler": 6,
      "source": 6,
      "name": "Grid3_ao"
    },
    {
      "sampler": 7,
      "source": 7,
      "name": "Grid3_a"
    },
    {
      "sampler": 8,
      "source": 8,
      "name": "Grid3_m"
    }
  ]
}