{
  "accessors": [
    {
      "bufferView": 0,
      "componentType": 5126,
      "count": 576,
      "type": "VEC3",
      "max": [
        24.857057571411133,
        149.01084899902344,
        24.857048034667969
      ],
      "min": [
        -24.857040405273438,
        -0.19117283821105957,
        -24.8570556640625
      ]
    },
    {
      "bufferView": 1,
      "componentType": 5126,
      "count": 576,
      "type": "VEC3",
      "max": [
        1.0,
        1.0,
        1.0
      ],
      "min": [
        -1.0,
        -1.0,
        -1.0
      ]
    },
    {
      "bufferView": 2,
      "componentType": 5126,
      "count": 576,
      "type": "VEC4",
      "max": [
        1.0,
        1.0,
        1.0,
        1.0
      ],
      "min": [
        -1.0,
        -1.0,
        -1.0,
        -1.0
      ]
    },
    {
      "bufferView": 3,
      "componentType": 5126,
      "count": 576,
      "type": "VEC2",
      "max": [
        0.99580693244934082,
        0.99532634019851685
      ],
      "min": [
        0.016559794545173645,
        0.0048154592514038086
      ]
    },
    {
      "bufferView": 4,
      "componentType": 5126,
      "count": 576,
      "type": "VEC2",
      "max": [
        0.94116783142089844,
        0.99603176116943359
      ],
      "min": [
        0.0037496685981750488,
        0.0039681196212768555
      ]
    },
    {
      "bufferView": 5,
      "componentType": 5123,
      "count": 924,
      "type": "SCALAR",
      "max": [
        575.0
      ],
      "min": [
        0.0
      ]
    }
  ],
  "asset": {
    "version": "2.0"
  },
  "buffers": [
    {
      "uri": "Skyscraper_distance_6.bin",
      "byteLength": 34104
    }
  ],
  "bufferViews": [
    {
      "buffer": 0,
      "byteLength": 6912
    },
    {
      "buffer": 0,
      "byteOffset": 6912,
      "byteLength": 6912
    },
    {
      "buffer": 0,
      "byteOffset": 13824,
      "byteLength": 9216
    },
    {
      "buffer": 0,
      "byteOffset": 23040,
      "byteLength": 4608
    },
    {
      "buffer": 0,
      "byteOffset": 27648,
      "byteLength": 4608
    },
    {
      "buffer": 0,
      "byteOffset": 32256,
      "byteLength": 1848
    }
  ],
  "images": [
    {
      "uri": "Assets/Dark%20City%202/Assets/Source/Background/Textures/Skyscraper_01_e.png",
      "name": "Skyscraper_01_e"
    },
    {
      "uri": "Assets/Dark%20City%202/Assets/Source/Background/Textures/Skyscraper_01_n.png",
      "name": "Skyscraper_01_n"
    },
    {
      "uri": "Assets/Dark%20City%202/Assets/Source/Background/Textures/Skyscraper_01_ao.png",
      "name": "Skyscraper_01_ao"
    },
    {
      "uri": "Assets/Dark%20City%202/Assets/Source/Background/Textures/Skyscraper_01_a.png",
      "name": "Skyscraper_01_a"
    },
    {
      "uri": "Assets/Dark%20City%202/Assets/Source/Background/Textures/Skyscraper_01_m.png",
      "name": "Skyscraper_01_m"
    }
  ],
  "materials": [
    {
      "pbrMetallicRoughness": {
        "baseColorFactor": [
          0.7482759,
          0.7482759,
          0.7482759,
          1.0
        ],
        "baseColorTexture": {
          "index": 3
        },
        "metallicRoughnessTexture": {
          "index": 4
        }
      },
      "normalTexture": {
        "index": 1
      },
      "occlusionTexture": {
        "index": 2
      },
      "emissiveTexture": {
        "index": 0
      },
      "emissiveFactor": [
        1.0,
        1.0,
        1.0
      ],
      "name": "Skyscraper_01_a"
    }
  ],
  "meshes": [
    {
      "primitives": [
        {
          "attributes": {
            "POSITION": 0,
            "NORMAL": 1,
            "TANGENT": 2,
            "TEXCOORD_0": 3,
            "TEXCOORD_1": 4
          },
          "indices": 5,
          "material": 0
        }
      ],
      "name": "Skyscraper_distance_6"
    }
  ],
  "nodes": [
    {
      "mesh": 0,
      "name": "Skyscraper_distance_6"
    }
  ],
  "samplers": [
    {
      "minFilter": 9985
    },
    {
      "minFilter": 9985
    },
    {
      "minFilter": 9985
    },
    {
      "minFilter": 9985
    },
    {
      "minFilter": 9985
    }
  ],
  "scene": 0,
  "scenes": [
    {
      "nodes": [
        0
      ],
      "name": "Skyscraper_distance_6"
    }
  ],
  "textures": [
    {
      "sampler": 0,
      "source": 0,
      "name": "Skyscraper_01_e"
    },
    {
      "sampler": 1,
      "source": 1,
      "name": "Skyscraper_01_n"
    },
    {
      "sampler": 2,
      "source": 2,
      "name": "Skyscraper_01_ao"
    },
    {
      "sampler": 3,
      "source": 3,
      "name": "Skyscraper_01_a"
    },
    {
      "sampler": 4,
      "source": 4,
      "name": "Skyscraper_01_m"
    }
  ]
}