{
  "accessors": [
    {
      "bufferView": 0,
      "componentType": 5126,
      "count": 555,
      "type": "VEC3",
      "max": [
        13.097029685974121,
        139.40858459472656,
        23.597579956054688
      ],
      "min": [
        -13.097030639648438,
        -0.03931736946105957,
        -23.597579956054688
      ]
    },
    {
      "bufferView": 1,
      "componentType": 5126,
      "count": 555,
      "type": "VEC3",
      "max": [
        1.0,
        1.0,
        1.0
      ],
      "min": [
        -1.0,
        -1.0,
        -1.0
      ]
    },
    {
      "bufferView": 2,
      "componentType": 5126,
      "count": 555,
      "type": "VEC4",
      "max": [
        1.0,
        1.0,
        1.0,
        1.0
      ],
      "min": [
        -1.0,
        -0.99999058246612549,
        -1.0,
        -1.0
      ]
    },
    {
      "bufferView": 3,
      "componentType": 5126,
      "count": 555,
      "type": "VEC2",
      "max": [
        0.99046492576599121,
        0.9580528736114502
      ],
      "min": [
        0.048628013581037521,
        0.014332592487335205
      ]
    },
    {
      "bufferView": 4,
      "componentType": 5126,
      "count": 555,
      "type": "VEC2",
      "max": [
        0.92850291728973389,
        0.99603176116943359
      ],
      "min": [
        0.0036992132663726807,
        0.0039682388305664063
      ]
    },
    {
      "bufferView": 5,
      "componentType": 5123,
      "count": 882,
      "type": "SCALAR",
      "max": [
        554.0
      ],
      "min": [
        0.0
      ]
    }
  ],
  "asset": {
    "version": "2.0"
  },
  "buffers": [
    {
      "uri": "Skyscraper_distance_4.bin",
      "byteLength": 32844
    }
  ],
  "bufferViews": [
    {
      "buffer": 0,
      "byteLength": 6660
    },
    {
      "buffer": 0,
      "byteOffset": 6660,
      "byteLength": 6660
    },
    {
      "buffer": 0,
      "byteOffset": 13320,
      "byteLength": 8880
    },
    {
      "buffer": 0,
      "byteOffset": 22200,
      "byteLength": 4440
    },
    {
      "buffer": 0,
      "byteOffset": 26640,
      "byteLength": 4440
    },
    {
      "buffer": 0,
      "byteOffset": 31080,
      "byteLength": 1764
    }
  ],
  "images": [
    {
      "uri": "Assets/Dark%20City%202/Assets/Source/Background/Textures/Skyscraper_01_e.png",
      "name": "Skyscraper_01_e"
    },
    {
      "uri": "Assets/Dark%20City%202/Assets/Source/Background/Textures/Skyscraper_01_n.png",
      "name": "Skyscraper_01_n"
    },
    {
      "uri": "Assets/Dark%20City%202/Assets/Source/Background/Textures/Skyscraper_01_ao.png",
      "name": "Skyscraper_01_ao"
    },
    {
      "uri": "Assets/Dark%20City%202/Assets/Source/Background/Textures/Skyscraper_01_a.png",
      "name": "Skyscraper_01_a"
    },
    {
      "uri": "Assets/Dark%20City%202/Assets/Source/Background/Textures/Skyscraper_01_m.png",
      "name": "Skyscraper_01_m"
    }
  ],
  "materials": [
    {
      "pbrMetallicRoughness": {
        "baseColorFactor": [
          0.7482759,
          0.7482759,
          0.7482759,
          1.0
        ],
        "baseColorTexture": {
          "index": 3
        },
        "metallicRoughnessTexture": {
          "index": 4
        }
      },
      "normalTexture": {
        "index": 1
      },
      "occlusionTexture": {
        "index": 2
      },
      "emissiveTexture": {
        "index": 0
      },
      "emissiveFactor": [
        1.0,
        1.0,
        1.0
      ],
      "name": "Skyscraper_01_a"
    }
  ],
  "meshes": [
    {
      "primitives": [
        {
          "attributes": {
            "POSITION": 0,
            "NORMAL": 1,
            "TANGENT": 2,
            "TEXCOORD_0": 3,
            "TEXCOORD_1": 4
          },
          "indices": 5,
          "material": 0
        }
      ],
      "name": "Skyscraper_distance_4"
    }
  ],
  "nodes": [
    {
      "mesh": 0,
      "name": "Skyscraper_distance_4"
    }
  ],
  "samplers": [
    {
      "minFilter": 9985
    },
    {
      "minFilter": 9985
    },
    {
      "minFilter": 9985
    },
    {
      "minFilter": 9985
    },
    {
      "minFilter": 9985
    }
  ],
  "scene": 0,
  "scenes": [
    {
      "nodes": [
        0
      ],
      "name": "Skyscraper_distance_4"
    }
  ],
  "textures": [
    {
      "sampler": 0,
      "source": 0,
      "name": "Skyscraper_01_e"
    },
    {
      "sampler": 1,
      "source": 1,
      "name": "Skyscraper_01_n"
    },
    {
      "sampler": 2,
      "source": 2,
      "name": "Skyscraper_01_ao"
    },
    {
      "sampler": 3,
      "source": 3,
      "name": "Skyscraper_01_a"
    },
    {
      "sampler": 4,
      "source": 4,
      "name": "Skyscraper_01_m"
    }
  ]
}