{
  "accessors": [
    {
      "bufferView": 0,
      "componentType": 5126,
      "count": 1762,
      "type": "VEC3",
      "max": [
        25.0,
        37.401668548583984,
        38.838623046875
      ],
      "min": [
        -25.0,
        -4.4146804809570313,
        -42.031345367431641
      ]
    },
    {
      "bufferView": 1,
      "componentType": 5126,
      "count": 1762,
      "type": "VEC3",
      "max": [
        1.0,
        1.0,
        1.0
      ],
      "min": [
        -1.0,
        -1.0,
        -1.0
      ]
    },
    {
      "bufferView": 2,
      "componentType": 5126,
      "count": 1762,
      "type": "VEC4",
      "max": [
        1.0,
        1.0,
        1.0,
        1.0
      ],
      "min": [
        -1.0,
        -1.0,
        -1.0,
        -1.0
      ]
    },
    {
      "bufferView": 3,
      "componentType": 5126,
      "count": 1762,
      "type": "VEC2",
      "max": [
        2.3125162124633789,
        0.99926424026489258
      ],
      "min": [
        -1.312862753868103,
        -0.020185470581054688
      ]
    },
    {
      "bufferView": 4,
      "componentType": 5126,
      "count": 1762,
      "type": "VEC2",
      "max": [
        0.99603188037872314,
        0.996065080165863
      ],
      "min": [
        0.0039680823683738708,
        0.012337803840637207
      ]
    },
    {
      "bufferView": 5,
      "componentType": 5123,
      "count": 2718,
      "type": "SCALAR",
      "max": [
        1745.0
      ],
      "min": [
        0.0
      ]
    },
    {
      "bufferView": 6,
      "componentType": 5123,
      "count": 24,
      "type": "SCALAR",
      "max": [
        1761.0
      ],
      "min": [
        1746.0
      ]
    }
  ],
  "asset": {
    "version": "2.0"
  },
  "buffers": [
    {
      "uri": "Wall_Large1.bin",
      "byteLength": 104156
    }
  ],
  "bufferViews": [
    {
      "buffer": 0,
      "byteLength": 21144
    },
    {
      "buffer": 0,
      "byteOffset": 21144,
      "byteLength": 21144
    },
    {
      "buffer": 0,
      "byteOffset": 42288,
      "byteLength": 28192
    },
    {
      "buffer": 0,
      "byteOffset": 70480,
      "byteLength": 14096
    },
    {
      "buffer": 0,
      "byteOffset": 84576,
      "byteLength": 14096
    },
    {
      "buffer": 0,
      "byteOffset": 98672,
      "byteLength": 5436
    },
    {
      "buffer": 0,
      "byteOffset": 104108,
      "byteLength": 48
    }
  ],
  "images": [
    {
      "uri": "../Textures/Skyscraper_01_e.png",
      "name": "Skyscraper_01_e"
    },
    {
      "uri": "../Textures/Skyscraper_01_n.png",
      "name": "Skyscraper_01_n"
    },
    {
      "uri": "../Textures/Skyscraper_01_ao.png",
      "name": "Skyscraper_01_ao"
    },
    {
      "uri": "../Textures/Skyscraper_01_a.png",
      "name": "Skyscraper_01_a"
    },
    {
      "uri": "../Textures/Skyscraper_01_m.png",
      "name": "Skyscraper_01_m"
    },
    {
      "uri": "../Textures/Grid3_n.png",
      "name": "Grid3_n"
    },
    {
      "uri": "../Textures/Grid3_ao.png",
      "name": "Grid3_ao"
    },
    {
      "uri": "../Textures/Grid3_a.png",
      "name": "Grid3_a"
    },
    {
      "uri": "../Textures/Grid3_m.png",
      "name": "Grid3_m"
    }
  ],
  "materials": [
    {
      "pbrMetallicRoughness": {
        "baseColorFactor": [
          0.7482759,
          0.7482759,
          0.7482759,
          1.0
        ],
        "baseColorTexture": {
          "index": 3
        },
        "metallicRoughnessTexture": {
          "index": 4
        }
      },
      "normalTexture": {
        "index": 1
      },
      "occlusionTexture": {
        "index": 2
      },
      "emissiveTexture": {
        "index": 0
      },
      "emissiveFactor": [
        1.0,
        1.0,
        1.0
      ],
      "name": "Skyscraper_01_a"
    },
    {
      "pbrMetallicRoughness": {
        "baseColorTexture": {
          "index": 7
        },
        "metallicRoughnessTexture": {
          "index": 8
        }
      },
      "normalTexture": {
        "index": 5
      },
      "occlusionTexture": {
        "strength": 0.19200000166893005,
        "index": 6
      },
      "alphaMode": "MASK",
      "alphaCutoff": 0.54500001668930054,
      "name": "Grid3_a"
    }
  ],
  "meshes": [
    {
      "primitives": [
        {
          "attributes": {
            "POSITION": 0,
            "NORMAL": 1,
            "TANGENT": 2,
            "TEXCOORD_0": 3,
            "TEXCOORD_1": 4
          },
          "indices": 5,
          "material": 0
        },
        {
          "attributes": {
            "POSITION": 0,
            "NORMAL": 1,
            "TANGENT": 2,
            "TEXCOORD_0": 3,
            "TEXCOORD_1": 4
          },
          "indices": 6,
          "material": 1
        }
      ],
      "name": "Wall_Large1"
    }
  ],
  "nodes": [
    {
      "mesh": 0,
      "name": "Wall_Large1"
    }
  ],
  "samplers": [
    {
      "minFilter": 9985
    },
    {
      "minFilter": 9985
    },
    {
      "minFilter": 9985
    },
    {
      "minFilter": 9985
    },
    {
      "minFilter": 9985
    },
    {
      "minFilter": 9985
    },
    {
      "minFilter": 9985
    },
    {
      "minFilter": 9985
    },
    {
      "minFilter": 9985
    }
  ],
  "scene": 0,
  "scenes": [
    {
      "nodes": [
        0
      ],
      "name": "Wall_Large1"
    }
  ],
  "textures": [
    {
      "sampler": 0,
      "source": 0,
      "name": "Skyscraper_01_e"
    },
    {
      "sampler": 1,
      "source": 1,
      "name": "Skyscraper_01_n"
    },
    {
      "sampler": 2,
      "source": 2,
      "name": "Skyscraper_01_ao"
    },
    {
      "sampler": 3,
      "source": 3,
      "name": "Skyscraper_01_a"
    },
    {
      "sampler": 4,
      "source": 4,
      "name": "Skyscraper_01_m"
    },
    {
      "sampler": 5,
      "source": 5,
      "name": "Grid3_n"
    },
    {
      "sampler": 6,
      "source": 6,
      "name": "Grid3_ao"
    },
    {
      "sampler": 7,
      "source": 7,
      "name": "Grid3_a"
    },
    {
      "sampler": 8,
      "source": 8,
      "name": "Grid3_m"
    }
  ]
}